<svg xmlns="http://www.w3.org/2000/svg" viewBox="0 0 1200 820" role="img" aria-labelledby="title desc">
  <title id="title">Web By Elie browser preview mosaic</title>
  <desc id="desc">Layered website cards showing a refreshed homepage, search structure, and AI-ready content blocks.</desc>
  <defs>
    <linearGradient id="bg" x1="0" x2="1" y1="0" y2="1">
      <stop offset="0" stop-color="#e9f7f2"/>
      <stop offset="0.55" stop-color="#f8efe3"/>
      <stop offset="1" stop-color="#e8eef9"/>
    </linearGradient>
    <linearGradient id="screen" x1="0" x2="1" y1="0" y2="1">
      <stop offset="0" stop-color="#ffffff"/>
      <stop offset="1" stop-color="#f4f7fb"/>
    </linearGradient>
    <filter id="shadow" x="-20%" y="-20%" width="140%" height="150%">
      <feDropShadow dx="0" dy="28" stdDeviation="28" flood-color="#23323d" flood-opacity="0.18"/>
    </filter>
  </defs>
  <rect width="1200" height="820" fill="url(#bg)"/>
  <circle cx="176" cy="150" r="74" fill="#ffcf70" opacity="0.75"/>
  <circle cx="1020" cy="666" r="92" fill="#7db7a6" opacity="0.42"/>
  <g filter="url(#shadow)">
    <rect x="150" y="130" width="730" height="500" rx="28" fill="url(#screen)"/>
    <rect x="150" y="130" width="730" height="66" rx="28" fill="#22313b"/>
    <circle cx="198" cy="163" r="10" fill="#ff7b73"/>
    <circle cx="232" cy="163" r="10" fill="#ffd36b"/>
    <circle cx="266" cy="163" r="10" fill="#67d88f"/>
    <rect x="194" y="242" width="320" height="34" rx="8" fill="#22313b"/>
    <rect x="194" y="296" width="455" height="18" rx="9" fill="#6d7b83"/>
    <rect x="194" y="330" width="390" height="18" rx="9" fill="#98a4aa"/>
    <rect x="194" y="398" width="148" height="44" rx="22" fill="#df6f45"/>
    <rect x="370" y="398" width="148" height="44" rx="22" fill="#e9edf2"/>
    <rect x="610" y="242" width="190" height="220" rx="18" fill="#dcebe5"/>
    <path d="M642 420c42-78 70-116 95-116 28 0 42 62 63 116z" fill="#77a695"/>
    <circle cx="752" cy="294" r="28" fill="#f5bd63"/>
    <rect x="194" y="512" width="176" height="52" rx="12" fill="#eef3f7"/>
    <rect x="400" y="512" width="176" height="52" rx="12" fill="#eef3f7"/>
    <rect x="606" y="512" width="176" height="52" rx="12" fill="#eef3f7"/>
  </g>
  <g filter="url(#shadow)">
    <rect x="708" y="320" width="320" height="300" rx="26" fill="#fbf8f2"/>
    <rect x="746" y="364" width="180" height="22" rx="8" fill="#22313b"/>
    <rect x="746" y="410" width="230" height="14" rx="7" fill="#81909a"/>
    <rect x="746" y="438" width="196" height="14" rx="7" fill="#a7b1b7"/>
    <rect x="746" y="488" width="96" height="72" rx="14" fill="#dfeee9"/>
    <rect x="866" y="488" width="96" height="72" rx="14" fill="#f4dfc8"/>
  </g>
  <g filter="url(#shadow)">
    <rect x="94" y="482" width="310" height="190" rx="24" fill="#ffffff"/>
    <rect x="132" y="526" width="92" height="18" rx="9" fill="#df6f45"/>
    <rect x="132" y="568" width="210" height="13" rx="7" fill="#6d7b83"/>
    <rect x="132" y="596" width="178" height="13" rx="7" fill="#9aa7ad"/>
    <rect x="132" y="628" width="124" height="30" rx="15" fill="#22313b"/>
  </g>
</svg>
