<svg xmlns="http://www.w3.org/2000/svg" viewBox="0 0 1024 1024" width="1024" height="1024" role="img" aria-label="QR code for https://web-by-elie.com/">
<rect width="1024" height="1024" fill="#fffaf2"/>
<rect x="110.702703" y="110.702703" width="193.729730" height="27.675676" fill="#1d2930"/>
<rect x="415.135135" y="110.702703" width="83.027027" height="27.675676" fill="#1d2930"/>
<rect x="553.513514" y="110.702703" width="27.675676" height="27.675676" fill="#1d2930"/>
<rect x="608.864865" y="110.702703" width="55.351351" height="27.675676" fill="#1d2930"/>
<rect x="719.567568" y="110.702703" width="193.729730" height="27.675676" fill="#1d2930"/>
<rect x="110.702703" y="138.378378" width="27.675676" height="27.675676" fill="#1d2930"/>
<rect x="276.756757" y="138.378378" width="27.675676" height="27.675676" fill="#1d2930"/>
<rect x="359.783784" y="138.378378" width="27.675676" height="27.675676" fill="#1d2930"/>
<rect x="415.135135" y="138.378378" width="55.351351" height="27.675676" fill="#1d2930"/>
<rect x="498.162162" y="138.378378" width="83.027027" height="27.675676" fill="#1d2930"/>
<rect x="719.567568" y="138.378378" width="27.675676" height="27.675676" fill="#1d2930"/>
<rect x="885.621622" y="138.378378" width="27.675676" height="27.675676" fill="#1d2930"/>
<rect x="110.702703" y="166.054054" width="27.675676" height="27.675676" fill="#1d2930"/>
<rect x="166.054054" y="166.054054" width="83.027027" height="27.675676" fill="#1d2930"/>
<rect x="276.756757" y="166.054054" width="27.675676" height="27.675676" fill="#1d2930"/>
<rect x="387.459459" y="166.054054" width="27.675676" height="27.675676" fill="#1d2930"/>
<rect x="470.486486" y="166.054054" width="27.675676" height="27.675676" fill="#1d2930"/>
<rect x="553.513514" y="166.054054" width="27.675676" height="27.675676" fill="#1d2930"/>
<rect x="636.540541" y="166.054054" width="55.351351" height="27.675676" fill="#1d2930"/>
<rect x="719.567568" y="166.054054" width="27.675676" height="27.675676" fill="#1d2930"/>
<rect x="774.918919" y="166.054054" width="83.027027" height="27.675676" fill="#1d2930"/>
<rect x="885.621622" y="166.054054" width="27.675676" height="27.675676" fill="#1d2930"/>
<rect x="110.702703" y="193.729730" width="27.675676" height="27.675676" fill="#1d2930"/>
<rect x="166.054054" y="193.729730" width="83.027027" height="27.675676" fill="#1d2930"/>
<rect x="276.756757" y="193.729730" width="27.675676" height="27.675676" fill="#1d2930"/>
<rect x="359.783784" y="193.729730" width="27.675676" height="27.675676" fill="#1d2930"/>
<rect x="415.135135" y="193.729730" width="138.378378" height="27.675676" fill="#1d2930"/>
<rect x="581.189189" y="193.729730" width="83.027027" height="27.675676" fill="#1d2930"/>
<rect x="719.567568" y="193.729730" width="27.675676" height="27.675676" fill="#1d2930"/>
<rect x="774.918919" y="193.729730" width="83.027027" height="27.675676" fill="#1d2930"/>
<rect x="885.621622" y="193.729730" width="27.675676" height="27.675676" fill="#1d2930"/>
<rect x="110.702703" y="221.405405" width="27.675676" height="27.675676" fill="#1d2930"/>
<rect x="166.054054" y="221.405405" width="83.027027" height="27.675676" fill="#1d2930"/>
<rect x="276.756757" y="221.405405" width="27.675676" height="27.675676" fill="#1d2930"/>
<rect x="332.108108" y="221.405405" width="138.378378" height="27.675676" fill="#1d2930"/>
<rect x="553.513514" y="221.405405" width="27.675676" height="27.675676" fill="#1d2930"/>
<rect x="636.540541" y="221.405405" width="27.675676" height="27.675676" fill="#1d2930"/>
<rect x="719.567568" y="221.405405" width="27.675676" height="27.675676" fill="#1d2930"/>
<rect x="774.918919" y="221.405405" width="83.027027" height="27.675676" fill="#1d2930"/>
<rect x="885.621622" y="221.405405" width="27.675676" height="27.675676" fill="#1d2930"/>
<rect x="110.702703" y="249.081081" width="27.675676" height="27.675676" fill="#1d2930"/>
<rect x="276.756757" y="249.081081" width="27.675676" height="27.675676" fill="#1d2930"/>
<rect x="359.783784" y="249.081081" width="27.675676" height="27.675676" fill="#1d2930"/>
<rect x="415.135135" y="249.081081" width="27.675676" height="27.675676" fill="#1d2930"/>
<rect x="553.513514" y="249.081081" width="138.378378" height="27.675676" fill="#1d2930"/>
<rect x="719.567568" y="249.081081" width="27.675676" height="27.675676" fill="#1d2930"/>
<rect x="885.621622" y="249.081081" width="27.675676" height="27.675676" fill="#1d2930"/>
<rect x="110.702703" y="276.756757" width="193.729730" height="27.675676" fill="#1d2930"/>
<rect x="332.108108" y="276.756757" width="27.675676" height="27.675676" fill="#1d2930"/>
<rect x="387.459459" y="276.756757" width="27.675676" height="27.675676" fill="#1d2930"/>
<rect x="442.810811" y="276.756757" width="27.675676" height="27.675676" fill="#1d2930"/>
<rect x="498.162162" y="276.756757" width="27.675676" height="27.675676" fill="#1d2930"/>
<rect x="553.513514" y="276.756757" width="27.675676" height="27.675676" fill="#1d2930"/>
<rect x="608.864865" y="276.756757" width="27.675676" height="27.675676" fill="#1d2930"/>
<rect x="664.216216" y="276.756757" width="27.675676" height="27.675676" fill="#1d2930"/>
<rect x="719.567568" y="276.756757" width="193.729730" height="27.675676" fill="#1d2930"/>
<rect x="332.108108" y="304.432432" width="27.675676" height="27.675676" fill="#1d2930"/>
<rect x="387.459459" y="304.432432" width="27.675676" height="27.675676" fill="#1d2930"/>
<rect x="442.810811" y="304.432432" width="27.675676" height="27.675676" fill="#1d2930"/>
<rect x="498.162162" y="304.432432" width="27.675676" height="27.675676" fill="#1d2930"/>
<rect x="581.189189" y="304.432432" width="55.351351" height="27.675676" fill="#1d2930"/>
<rect x="166.054054" y="332.108108" width="55.351351" height="27.675676" fill="#1d2930"/>
<rect x="276.756757" y="332.108108" width="110.702703" height="27.675676" fill="#1d2930"/>
<rect x="415.135135" y="332.108108" width="27.675676" height="27.675676" fill="#1d2930"/>
<rect x="470.486486" y="332.108108" width="83.027027" height="27.675676" fill="#1d2930"/>
<rect x="636.540541" y="332.108108" width="27.675676" height="27.675676" fill="#1d2930"/>
<rect x="691.891892" y="332.108108" width="55.351351" height="27.675676" fill="#1d2930"/>
<rect x="774.918919" y="332.108108" width="27.675676" height="27.675676" fill="#1d2930"/>
<rect x="166.054054" y="359.783784" width="83.027027" height="27.675676" fill="#1d2930"/>
<rect x="304.432432" y="359.783784" width="55.351351" height="27.675676" fill="#1d2930"/>
<rect x="387.459459" y="359.783784" width="27.675676" height="27.675676" fill="#1d2930"/>
<rect x="442.810811" y="359.783784" width="27.675676" height="27.675676" fill="#1d2930"/>
<rect x="498.162162" y="359.783784" width="55.351351" height="27.675676" fill="#1d2930"/>
<rect x="581.189189" y="359.783784" width="221.405405" height="27.675676" fill="#1d2930"/>
<rect x="830.270270" y="359.783784" width="27.675676" height="27.675676" fill="#1d2930"/>
<rect x="885.621622" y="359.783784" width="27.675676" height="27.675676" fill="#1d2930"/>
<rect x="249.081081" y="387.459459" width="55.351351" height="27.675676" fill="#1d2930"/>
<rect x="359.783784" y="387.459459" width="27.675676" height="27.675676" fill="#1d2930"/>
<rect x="415.135135" y="387.459459" width="55.351351" height="27.675676" fill="#1d2930"/>
<rect x="498.162162" y="387.459459" width="138.378378" height="27.675676" fill="#1d2930"/>
<rect x="719.567568" y="387.459459" width="27.675676" height="27.675676" fill="#1d2930"/>
<rect x="802.594595" y="387.459459" width="83.027027" height="27.675676" fill="#1d2930"/>
<rect x="138.378378" y="415.135135" width="83.027027" height="27.675676" fill="#1d2930"/>
<rect x="304.432432" y="415.135135" width="55.351351" height="27.675676" fill="#1d2930"/>
<rect x="415.135135" y="415.135135" width="27.675676" height="27.675676" fill="#1d2930"/>
<rect x="498.162162" y="415.135135" width="27.675676" height="27.675676" fill="#1d2930"/>
<rect x="664.216216" y="415.135135" width="27.675676" height="27.675676" fill="#1d2930"/>
<rect x="774.918919" y="415.135135" width="55.351351" height="27.675676" fill="#1d2930"/>
<rect x="885.621622" y="415.135135" width="27.675676" height="27.675676" fill="#1d2930"/>
<rect x="110.702703" y="442.810811" width="27.675676" height="27.675676" fill="#1d2930"/>
<rect x="166.054054" y="442.810811" width="55.351351" height="27.675676" fill="#1d2930"/>
<rect x="249.081081" y="442.810811" width="110.702703" height="27.675676" fill="#1d2930"/>
<rect x="442.810811" y="442.810811" width="83.027027" height="27.675676" fill="#1d2930"/>
<rect x="553.513514" y="442.810811" width="27.675676" height="27.675676" fill="#1d2930"/>
<rect x="636.540541" y="442.810811" width="27.675676" height="27.675676" fill="#1d2930"/>
<rect x="691.891892" y="442.810811" width="27.675676" height="27.675676" fill="#1d2930"/>
<rect x="747.243243" y="442.810811" width="27.675676" height="27.675676" fill="#1d2930"/>
<rect x="830.270270" y="442.810811" width="83.027027" height="27.675676" fill="#1d2930"/>
<rect x="110.702703" y="470.486486" width="83.027027" height="27.675676" fill="#1d2930"/>
<rect x="332.108108" y="470.486486" width="83.027027" height="27.675676" fill="#1d2930"/>
<rect x="470.486486" y="470.486486" width="55.351351" height="27.675676" fill="#1d2930"/>
<rect x="553.513514" y="470.486486" width="27.675676" height="27.675676" fill="#1d2930"/>
<rect x="608.864865" y="470.486486" width="55.351351" height="27.675676" fill="#1d2930"/>
<rect x="719.567568" y="470.486486" width="55.351351" height="27.675676" fill="#1d2930"/>
<rect x="802.594595" y="470.486486" width="110.702703" height="27.675676" fill="#1d2930"/>
<rect x="138.378378" y="498.162162" width="27.675676" height="27.675676" fill="#1d2930"/>
<rect x="193.729730" y="498.162162" width="27.675676" height="27.675676" fill="#1d2930"/>
<rect x="276.756757" y="498.162162" width="110.702703" height="27.675676" fill="#1d2930"/>
<rect x="470.486486" y="498.162162" width="55.351351" height="27.675676" fill="#1d2930"/>
<rect x="581.189189" y="498.162162" width="27.675676" height="27.675676" fill="#1d2930"/>
<rect x="636.540541" y="498.162162" width="193.729730" height="27.675676" fill="#1d2930"/>
<rect x="857.945946" y="498.162162" width="55.351351" height="27.675676" fill="#1d2930"/>
<rect x="138.378378" y="525.837838" width="55.351351" height="27.675676" fill="#1d2930"/>
<rect x="221.405405" y="525.837838" width="55.351351" height="27.675676" fill="#1d2930"/>
<rect x="304.432432" y="525.837838" width="110.702703" height="27.675676" fill="#1d2930"/>
<rect x="498.162162" y="525.837838" width="27.675676" height="27.675676" fill="#1d2930"/>
<rect x="553.513514" y="525.837838" width="55.351351" height="27.675676" fill="#1d2930"/>
<rect x="636.540541" y="525.837838" width="55.351351" height="27.675676" fill="#1d2930"/>
<rect x="774.918919" y="525.837838" width="55.351351" height="27.675676" fill="#1d2930"/>
<rect x="857.945946" y="525.837838" width="55.351351" height="27.675676" fill="#1d2930"/>
<rect x="110.702703" y="553.513514" width="27.675676" height="27.675676" fill="#1d2930"/>
<rect x="221.405405" y="553.513514" width="83.027027" height="27.675676" fill="#1d2930"/>
<rect x="415.135135" y="553.513514" width="27.675676" height="27.675676" fill="#1d2930"/>
<rect x="525.837838" y="553.513514" width="27.675676" height="27.675676" fill="#1d2930"/>
<rect x="608.864865" y="553.513514" width="27.675676" height="27.675676" fill="#1d2930"/>
<rect x="664.216216" y="553.513514" width="27.675676" height="27.675676" fill="#1d2930"/>
<rect x="747.243243" y="553.513514" width="83.027027" height="27.675676" fill="#1d2930"/>
<rect x="138.378378" y="581.189189" width="55.351351" height="27.675676" fill="#1d2930"/>
<rect x="249.081081" y="581.189189" width="27.675676" height="27.675676" fill="#1d2930"/>
<rect x="304.432432" y="581.189189" width="27.675676" height="27.675676" fill="#1d2930"/>
<rect x="442.810811" y="581.189189" width="55.351351" height="27.675676" fill="#1d2930"/>
<rect x="664.216216" y="581.189189" width="27.675676" height="27.675676" fill="#1d2930"/>
<rect x="747.243243" y="581.189189" width="27.675676" height="27.675676" fill="#1d2930"/>
<rect x="830.270270" y="581.189189" width="27.675676" height="27.675676" fill="#1d2930"/>
<rect x="110.702703" y="608.864865" width="27.675676" height="27.675676" fill="#1d2930"/>
<rect x="193.729730" y="608.864865" width="27.675676" height="27.675676" fill="#1d2930"/>
<rect x="249.081081" y="608.864865" width="55.351351" height="27.675676" fill="#1d2930"/>
<rect x="359.783784" y="608.864865" width="55.351351" height="27.675676" fill="#1d2930"/>
<rect x="442.810811" y="608.864865" width="55.351351" height="27.675676" fill="#1d2930"/>
<rect x="525.837838" y="608.864865" width="27.675676" height="27.675676" fill="#1d2930"/>
<rect x="581.189189" y="608.864865" width="27.675676" height="27.675676" fill="#1d2930"/>
<rect x="664.216216" y="608.864865" width="27.675676" height="27.675676" fill="#1d2930"/>
<rect x="719.567568" y="608.864865" width="27.675676" height="27.675676" fill="#1d2930"/>
<rect x="774.918919" y="608.864865" width="55.351351" height="27.675676" fill="#1d2930"/>
<rect x="304.432432" y="636.540541" width="55.351351" height="27.675676" fill="#1d2930"/>
<rect x="387.459459" y="636.540541" width="27.675676" height="27.675676" fill="#1d2930"/>
<rect x="442.810811" y="636.540541" width="55.351351" height="27.675676" fill="#1d2930"/>
<rect x="525.837838" y="636.540541" width="27.675676" height="27.675676" fill="#1d2930"/>
<rect x="636.540541" y="636.540541" width="110.702703" height="27.675676" fill="#1d2930"/>
<rect x="774.918919" y="636.540541" width="83.027027" height="27.675676" fill="#1d2930"/>
<rect x="138.378378" y="664.216216" width="166.054054" height="27.675676" fill="#1d2930"/>
<rect x="332.108108" y="664.216216" width="83.027027" height="27.675676" fill="#1d2930"/>
<rect x="470.486486" y="664.216216" width="110.702703" height="27.675676" fill="#1d2930"/>
<rect x="636.540541" y="664.216216" width="221.405405" height="27.675676" fill="#1d2930"/>
<rect x="332.108108" y="691.891892" width="55.351351" height="27.675676" fill="#1d2930"/>
<rect x="415.135135" y="691.891892" width="55.351351" height="27.675676" fill="#1d2930"/>
<rect x="498.162162" y="691.891892" width="55.351351" height="27.675676" fill="#1d2930"/>
<rect x="608.864865" y="691.891892" width="83.027027" height="27.675676" fill="#1d2930"/>
<rect x="774.918919" y="691.891892" width="55.351351" height="27.675676" fill="#1d2930"/>
<rect x="857.945946" y="691.891892" width="55.351351" height="27.675676" fill="#1d2930"/>
<rect x="110.702703" y="719.567568" width="193.729730" height="27.675676" fill="#1d2930"/>
<rect x="332.108108" y="719.567568" width="83.027027" height="27.675676" fill="#1d2930"/>
<rect x="442.810811" y="719.567568" width="55.351351" height="27.675676" fill="#1d2930"/>
<rect x="553.513514" y="719.567568" width="27.675676" height="27.675676" fill="#1d2930"/>
<rect x="608.864865" y="719.567568" width="83.027027" height="27.675676" fill="#1d2930"/>
<rect x="719.567568" y="719.567568" width="27.675676" height="27.675676" fill="#1d2930"/>
<rect x="774.918919" y="719.567568" width="27.675676" height="27.675676" fill="#1d2930"/>
<rect x="830.270270" y="719.567568" width="55.351351" height="27.675676" fill="#1d2930"/>
<rect x="110.702703" y="747.243243" width="27.675676" height="27.675676" fill="#1d2930"/>
<rect x="276.756757" y="747.243243" width="27.675676" height="27.675676" fill="#1d2930"/>
<rect x="387.459459" y="747.243243" width="55.351351" height="27.675676" fill="#1d2930"/>
<rect x="498.162162" y="747.243243" width="27.675676" height="27.675676" fill="#1d2930"/>
<rect x="553.513514" y="747.243243" width="27.675676" height="27.675676" fill="#1d2930"/>
<rect x="608.864865" y="747.243243" width="27.675676" height="27.675676" fill="#1d2930"/>
<rect x="664.216216" y="747.243243" width="27.675676" height="27.675676" fill="#1d2930"/>
<rect x="774.918919" y="747.243243" width="27.675676" height="27.675676" fill="#1d2930"/>
<rect x="857.945946" y="747.243243" width="55.351351" height="27.675676" fill="#1d2930"/>
<rect x="110.702703" y="774.918919" width="27.675676" height="27.675676" fill="#1d2930"/>
<rect x="166.054054" y="774.918919" width="83.027027" height="27.675676" fill="#1d2930"/>
<rect x="276.756757" y="774.918919" width="27.675676" height="27.675676" fill="#1d2930"/>
<rect x="359.783784" y="774.918919" width="110.702703" height="27.675676" fill="#1d2930"/>
<rect x="525.837838" y="774.918919" width="55.351351" height="27.675676" fill="#1d2930"/>
<rect x="664.216216" y="774.918919" width="193.729730" height="27.675676" fill="#1d2930"/>
<rect x="885.621622" y="774.918919" width="27.675676" height="27.675676" fill="#1d2930"/>
<rect x="110.702703" y="802.594595" width="27.675676" height="27.675676" fill="#1d2930"/>
<rect x="166.054054" y="802.594595" width="83.027027" height="27.675676" fill="#1d2930"/>
<rect x="276.756757" y="802.594595" width="27.675676" height="27.675676" fill="#1d2930"/>
<rect x="332.108108" y="802.594595" width="83.027027" height="27.675676" fill="#1d2930"/>
<rect x="470.486486" y="802.594595" width="27.675676" height="27.675676" fill="#1d2930"/>
<rect x="553.513514" y="802.594595" width="27.675676" height="27.675676" fill="#1d2930"/>
<rect x="636.540541" y="802.594595" width="27.675676" height="27.675676" fill="#1d2930"/>
<rect x="774.918919" y="802.594595" width="110.702703" height="27.675676" fill="#1d2930"/>
<rect x="110.702703" y="830.270270" width="27.675676" height="27.675676" fill="#1d2930"/>
<rect x="166.054054" y="830.270270" width="83.027027" height="27.675676" fill="#1d2930"/>
<rect x="276.756757" y="830.270270" width="27.675676" height="27.675676" fill="#1d2930"/>
<rect x="332.108108" y="830.270270" width="27.675676" height="27.675676" fill="#1d2930"/>
<rect x="387.459459" y="830.270270" width="83.027027" height="27.675676" fill="#1d2930"/>
<rect x="553.513514" y="830.270270" width="27.675676" height="27.675676" fill="#1d2930"/>
<rect x="664.216216" y="830.270270" width="27.675676" height="27.675676" fill="#1d2930"/>
<rect x="747.243243" y="830.270270" width="27.675676" height="27.675676" fill="#1d2930"/>
<rect x="885.621622" y="830.270270" width="27.675676" height="27.675676" fill="#1d2930"/>
<rect x="110.702703" y="857.945946" width="27.675676" height="27.675676" fill="#1d2930"/>
<rect x="276.756757" y="857.945946" width="27.675676" height="27.675676" fill="#1d2930"/>
<rect x="415.135135" y="857.945946" width="27.675676" height="27.675676" fill="#1d2930"/>
<rect x="525.837838" y="857.945946" width="27.675676" height="27.675676" fill="#1d2930"/>
<rect x="581.189189" y="857.945946" width="27.675676" height="27.675676" fill="#1d2930"/>
<rect x="664.216216" y="857.945946" width="27.675676" height="27.675676" fill="#1d2930"/>
<rect x="719.567568" y="857.945946" width="27.675676" height="27.675676" fill="#1d2930"/>
<rect x="774.918919" y="857.945946" width="55.351351" height="27.675676" fill="#1d2930"/>
<rect x="857.945946" y="857.945946" width="27.675676" height="27.675676" fill="#1d2930"/>
<rect x="110.702703" y="885.621622" width="193.729730" height="27.675676" fill="#1d2930"/>
<rect x="359.783784" y="885.621622" width="27.675676" height="27.675676" fill="#1d2930"/>
<rect x="415.135135" y="885.621622" width="55.351351" height="27.675676" fill="#1d2930"/>
<rect x="525.837838" y="885.621622" width="55.351351" height="27.675676" fill="#1d2930"/>
<rect x="636.540541" y="885.621622" width="55.351351" height="27.675676" fill="#1d2930"/>
<rect x="719.567568" y="885.621622" width="55.351351" height="27.675676" fill="#1d2930"/>
<rect x="857.945946" y="885.621622" width="27.675676" height="27.675676" fill="#1d2930"/>
</svg>
